<svg xmlns="http://www.w3.org/2000/svg" xmlns:xlink="http://www.w3.org/1999/xlink" viewBox="0 0 1132 804" xmlns:ev="http://www.w3.org/2001/xml-events" width="1132" height="804"><style type="text/css"><![CDATA[
.st1 {fill:#1f6391;font-family:微软雅黑;font-size:10pt;font-weight:bold}
]]></style><defs/><g id="page1" transform="translate(5,5)"><rect x="0" fill="#ffffff" y="0" stroke="#808080" width="1123" height="794"/><g id="shape1" transform="translate(165,301)"><path fill="#ffffff" d="M137.4,0L0,0L0,39L137.4,39M34.4,0L34.4,39L0,39L0,0L137.4,0L34.4,0z" stroke="#000000"/><text class="st1"><tspan x="8.2" y="23.5">D1</tspan></text><text class="st1"><tspan x="52" y="23.5">输入字符串</tspan></text></g><g id="shape2" transform="translate(592.5,509.5)"><path fill="#ffffff" d="M147,0L0,0L0,39L147,39M40.5,0L40.5,39L0,39L0,0L147,0L40.5,0z" stroke="#000000"/><text class="st1"><tspan x="11.4" y="23.5">D3</tspan></text><text class="st1"><tspan x="60" y="23.5">预测分析表</tspan></text></g><g id="shape3" transform="translate(594.15,170)"><path fill="#ffffff" d="M143.7,0L0,0L0,39L143.7,39M50.4,0L50.4,39L0,39L0,0L143.7,0L50.4,0z" stroke="#000000"/><text class="st1"><tspan x="16.2" y="23.5">D2</tspan></text><text class="st1"><tspan x="56.2" y="23.5">产生式子程序</tspan></text></g><g id="shape4" transform="translate(805.3,317)"><path fill="#ffffff" d="M153.7,0L0,0L0,39L153.7,39M38.4,0L38.4,39L0,39L0,0L153.7,0L38.4,0z" stroke="#000000"/><text class="st1"><tspan x="9.8" y="23.5">D4</tspan></text><text class="st1"><tspan x="75.4" y="23.5">表达式</tspan></text></g><g id="shape5" transform="translate(416.7,283)"><path fill="#ffffff" d="M82.8,142C86.8,142,90,138.8,90,134.8L90,7.2C90,3.2,86.8,0,82.8,0L7.2,0C3.2,0,0,3.2,0,7.2L0,134.8C0,138.8,3.2,142,7.2,142L82.8,142z"/><path d="M82.8,142C86.8,142,90,138.8,90,134.8L90,7.2C90,3.2,86.8,0,82.8,0L7.2,0C3.2,0,0,3.2,0,7.2L0,134.8C0,138.8,3.2,142,7.2,142L82.8,142zM0,43L90,43" fill="none" stroke="#000000"/><text class="st1"><tspan x="23.2" y="11.4">lexical </tspan><tspan x="16" y="30.6">analyzer</tspan></text></g><g id="shape6" transform="translate(621,283)"><path fill="#ffffff" d="M82.8,142C86.8,142,90,138.8,90,134.8L90,7.2C90,3.2,86.8,0,82.8,0L7.2,0C3.2,0,0,3.2,0,7.2L0,134.8C0,138.8,3.2,142,7.2,142L82.8,142z"/><path d="M82.8,142C86.8,142,90,138.8,90,134.8L90,7.2C90,3.2,86.8,0,82.8,0L7.2,0C3.2,0,0,3.2,0,7.2L0,134.8C0,138.8,3.2,142,7.2,142L82.8,142zM0,43L90,43" fill="none" stroke="#000000"/><text class="st1"><tspan x="24" y="21">parser</tspan></text></g><g id="shape7" transform="matrix(-1,0.02,-0.02,-1,416.7,318.5)"><path d="M8,0L114.3,0" fill="none" stroke="#000000"/><path fill="#000000" d="M8,4L0,0L8,-4L8,4" stroke-width="1" stroke="#000000" stroke-linecap="round"/></g><g id="shape8" transform="matrix(-1,0,0,-1,621,318.5)"><path d="M8,0L114.3,0" fill="none" stroke="#000000"/><path fill="#000000" d="M8,4L0,0L8,-4L8,4" stroke-width="1" stroke="#000000" stroke-linecap="round"/></g><g id="shape9" transform="matrix(-1,0,0,-1,803,318.5)"><path d="M8,0L92,0" fill="none" stroke="#000000"/><path fill="#000000" d="M8,4L0,0L8,-4L8,4" stroke-width="1" stroke="#000000" stroke-linecap="round"/></g><g id="shape10" transform="matrix(-1,0,0,-1,798,354)"><path d="M8,0L87,0" fill="none" stroke="#000000"/><path fill="#000000" d="M8,4L0,0L8,-4L8,4" stroke-width="1" stroke="#000000" stroke-linecap="round"/></g><g id="shape11" transform="matrix(0,1,-1,0,666,425)"><path d="M8,0L84.5,0" fill="none" stroke="#000000"/><path fill="#000000" d="M8,4L0,0L8,-4L8,4" stroke-width="1" stroke="#000000" stroke-linecap="round"/></g><g id="shape12" transform="matrix(0,-1,1,0,666,283)"><path d="M8,0L74,0" fill="none" stroke="#000000"/><path fill="#000000" d="M8,4L0,0L8,-4L8,4" stroke-width="1" stroke="#000000" stroke-linecap="round"/></g></g></svg>