<svg xmlns="http://www.w3.org/2000/svg" xmlns:xlink="http://www.w3.org/1999/xlink" viewBox="0 0 1132 804" xmlns:ev="http://www.w3.org/2001/xml-events" width="1132" height="804"><style type="text/css"><![CDATA[
.st2 {fill:#1f6391;font-family:宋体;font-size:10pt}
.st4 {fill:#1f6391;font-family:微软雅黑;font-size:10pt;font-weight:bold}
.st5 {fill:#1f6391;font-family:微软雅黑;font-size:10pt}
.st3 {fill:#2d85c1;font-family:微软雅黑;font-size:10pt;font-weight:bold}
.st1 {fill:#ffffff;font-family:宋体;font-size:10pt}
.st6 {font-weight:bold}
]]></style><defs/><g id="page1" transform="translate(5,5)"><rect x="0" fill="#ffffff" y="0" stroke="#808080" width="1123" height="794"/><g id="table1" transform="translate(241,533.47)"><g><path fill="#3498db" d="M0,0L122,0L122,35.5L0,35.5L0,0z" stroke="#7e7e7e"/><text class="st1"><tspan x="32.2" y="23">Constant</tspan></text></g><g><path fill="#e8eff8" d="M0,35.5L122,35.5L122,73.5L0,73.5L0,35.5z" stroke="#7e7e7e"/><text class="st2"/></g><g><path fill="#ffffff" d="M0,73.5L122,73.5L122,109L0,109L0,73.5z" stroke="#7e7e7e"/><text class="st2"/></g></g><g id="table2" transform="translate(491,526.17)"><g><path fill="#3498db" d="M0,0L122,0L122,27.6L0,27.6L0,0z" stroke="#7e7e7e"/><text class="st1"><tspan x="25" y="19">Expression</tspan></text></g><g><path fill="#e8eff8" d="M0,27.6L122,27.6L122,97.6L0,97.6L0,27.6z" stroke="#7e7e7e"/><text class="st3"><tspan x="49.8" y="47.4">left</tspan><tspan x="45" y="66.6">right</tspan><tspan x="35.4" y="85.8">opType</tspan></text></g><g><path fill="#ffffff" d="M0,97.6L122,97.6L122,123.6L0,123.6L0,97.6z" stroke="#7e7e7e"/><text class="st2"/></g></g><g id="table3" transform="translate(469,191.84)"><g><path fill="#3498db" d="M0,0L166,0L166,34.1L0,34.1L0,0z" stroke="#7e7e7e"/><text class="st1"><tspan x="50.6" y="22.2">BaseClass</tspan></text></g><g><path fill="#e8eff8" d="M0,34.1L166,34.1L166,108.6L0,108.6L0,34.1z" stroke="#7e7e7e"/><text class="st4"><tspan x="64.2" y="53.9">name</tspan><tspan x="65" y="73.1">value</tspan><tspan x="68.2" y="92.3">type</tspan></text></g><g><path fill="#ffffff" d="M0,108.6L166,108.6L166,252.2L0,252.2L0,108.6z" stroke="#7e7e7e"/><text class="st5"><tspan x="11.4" y="128.4" class="st6">__init__:</tspan><tspan>initialize</tspan><tspan x="11.4" y="147.6" class="st6">derivative: </tspan><tspan>return a </tspan><tspan x="11.4" y="166.8">expression object of </tspan><tspan x="11.4" y="185.2">the derivative of self</tspan><tspan x="11.4" y="203.6" class="st6">expression: </tspan><tspan>return a </tspan><tspan x="11.4" y="222.8">string expression of </tspan><tspan x="11.4" y="241.2">self </tspan></text></g></g><g id="shape4" transform="translate(491,587.97)"><path d="M0,0L-128,0" fill="none" stroke="#000000"/><path fill="none" d="M-116,6L-128,0L-116,-6" stroke-width="1" stroke-linejoin="round" stroke="#000000" stroke-linecap="round"/></g><g id="shape5" transform="matrix(0.89,-0.45,-0.45,-0.89,584.9,714.6)"><path d="M.2,64.9C1.3,41.9,7.5,21.3,17.1,9.6C27.7,-3.5,40.7,-3.5,51.3,9.6C61.9,22.6,68.4,46.7,68.4,72.7" fill="none" stroke="#000000"/><path fill="#000000" d="M0,72.7L2.1,65L-1.8,64.9L0,72.7" stroke-width="1" stroke="#000000" stroke-linecap="round"/></g><g id="table6" transform="translate(766,533.47)"><g><path fill="#3498db" d="M0,0L122,0L122,35.5L0,35.5L0,0z" stroke="#7e7e7e"/><text class="st1"><tspan x="36.2" y="23">Varible</tspan></text></g><g><path fill="#e8eff8" d="M0,35.5L122,35.5L122,73.5L0,73.5L0,35.5z" stroke="#7e7e7e"/><text class="st2"/></g><g><path fill="#ffffff" d="M0,73.5L122,73.5L122,109L0,109L0,73.5z" stroke="#7e7e7e"/><text class="st2"/></g></g><g id="shape7" transform="translate(613,587.97)"><path d="M0,0L153,0" fill="none" stroke="#000000"/><path fill="none" d="M141,-6L153,0L141,6" stroke-width="1" stroke-linejoin="round" stroke="#000000" stroke-linecap="round"/></g><g id="shape8" transform="translate(302,533.47)"><path d="M6.4,-2.7L208.5,-89.5" fill="none" stroke="#2d85c1"/><path fill="none" d="M0,0L7.9,.9L4.8,-6.4L0,0" stroke-width="1" stroke-linejoin="round" stroke="#2d85c1" stroke-linecap="round"/></g><g id="shape9" transform="translate(552,526.17)"><path d="M0,-6.9L0,-82.2" fill="none" stroke="#2d85c1"/><path fill="none" d="M0,0L4,-6.9L-4,-6.9L0,0" stroke-width="1" stroke-linejoin="round" stroke="#2d85c1" stroke-linecap="round"/></g><g id="shape10" transform="translate(827,533.47)"><path d="M-6.5,-2.5L-233.5,-89.5" fill="none" stroke="#2d85c1"/><path fill="none" d="M0,0L-5,-6.2L-7.9,1.3L0,0" stroke-width="1" stroke-linejoin="round" stroke="#2d85c1" stroke-linecap="round"/></g></g></svg>